<svg width="240" height="240" viewBox="0 0 240 240" fill="none" xmlns="http://www.w3.org/2000/svg">
  <defs>
    <!--Modern gradient with vibrant colors-->
    <linearGradient id="primaryGradient" x1="0%" y1="0%" x2="100%" y2="100%">
      <stop offset="0%" style="stop-color:#FF6B6B;stop-opacity:1"/>
      <stop offset="100%" style="stop-color:#4ECDC4;stop-opacity:1"/>
    </linearGradient>
    <!--Secondary gradient for accents-->
    <linearGradient id="accentGradient" x1="0%" y1="100%" x2="100%" y2="0%">
      <stop offset="0%" style="stop-color:#556270;stop-opacity:1"/>
      <stop offset="100%" style="stop-color:#C44569;stop-opacity:1"/>
    </linearGradient>
    <!--Subtle shadow filter-->
    <filter id="modernShadow">
      <feGaussianBlur in="SourceAlpha" stdDeviation="4"/>
      <feOffset dx="0" dy="4" result="offsetblur"/>
      <feFlood flood-color="#000000" flood-opacity="0.15"/>
      <feComposite in2="offsetblur" operator="in"/>
      <feMerge>
        <feMergeNode/>
        <feMergeNode in="SourceGraphic"/>
      </feMerge>
    </filter>
  </defs>
  <!--Background circle with subtle gradient-->
  <circle cx="120" cy="120" r="100" fill="#F7F9FB"/>
  <!--Main Icon Container-->
  <g transform="translate(120, 120)">
    <!--Outer ring representing cache cycle-->
    <g transform="rotate(-45)">
      <path d="M -60 0 A 60 60 0 0 1 0 -60" fill="none" stroke="url(#primaryGradient)" stroke-width="12" stroke-linecap="round"/>
      <path d="M 0 60 A 60 60 0 0 1 60 0" fill="none" stroke="url(#primaryGradient)" stroke-width="12" stroke-linecap="round" opacity="0.4"/>
    </g>
    <!--Center geometric shape representing storage-->
    <g filter="url(#modernShadow)">
      <!--Modern hexagon-inspired shape-->
      <path d="M -35 -20 L -35 10 L 0 35 L 35 10 L 35 -20 L 0 -45 Z" fill="url(#accentGradient)"/>
      <!--Inner details-->
      <g fill="white">
        <!--Speed lines representing fast cache-->
        <rect x="-20" y="-10" width="15" height="3" rx="1.5"/>
        <rect x="-20" y="-2" width="25" height="3" rx="1.5"/>
        <rect x="-20" y="6" width="20" height="3" rx="1.5"/>
        <!--Arrow indicating refresh-->
        <path d="M 10 -8 L 18 -8 L 18 -12 L 25 -5 L 18 2 L 18 -2 L 10 -2 Z" opacity="0.9"/>
      </g>
    </g>
    <!--Corner accents-->
    <circle cx="-60" cy="-60" r="5" fill="url(#primaryGradient)" opacity="0.6"/>
    <circle cx="60" cy="-60" r="5" fill="url(#primaryGradient)" opacity="0.6"/>
    <circle cx="60" cy="60" r="5" fill="url(#primaryGradient)" opacity="0.6"/>
    <circle cx="-60" cy="60" r="5" fill="url(#primaryGradient)" opacity="0.6"/>
  </g>
</svg>
