<svg width="1280" height="640" viewBox="0 0 1280 640" fill="none" xmlns="http://www.w3.org/2000/svg">
  <defs>
    <!-- Modern gradients -->
    <linearGradient id="bgGradient" x1="0%" y1="0%" x2="100%" y2="100%">
      <stop offset="0%" style="stop-color:#0F0C29;stop-opacity:1"/>
      <stop offset="50%" style="stop-color:#302B63;stop-opacity:1"/>
      <stop offset="100%" style="stop-color:#24243E;stop-opacity:1"/>
    </linearGradient>

    <linearGradient id="primaryGradient" x1="0%" y1="0%" x2="100%" y2="100%">
      <stop offset="0%" style="stop-color:#FF6B6B;stop-opacity:1"/>
      <stop offset="100%" style="stop-color:#4ECDC4;stop-opacity:1"/>
    </linearGradient>

    <linearGradient id="accentGradient" x1="0%" y1="100%" x2="100%" y2="0%">
      <stop offset="0%" style="stop-color:#556270;stop-opacity:1"/>
      <stop offset="100%" style="stop-color:#C44569;stop-opacity:1"/>
    </linearGradient>

    <!-- Modern geometric pattern -->
    <pattern id="geometricPattern" x="0" y="0" width="100" height="100" patternUnits="userSpaceOnUse">
      <circle cx="50" cy="50" r="1" fill="white" opacity="0.1"/>
      <path d="M 0 50 L 50 0 L 100 50 L 50 100 Z" fill="none" stroke="white" stroke-width="0.5" opacity="0.05"/>
    </pattern>

    <!-- Glow effect -->
    <filter id="glow">
      <feGaussianBlur stdDeviation="4" result="coloredBlur"/>
      <feMerge>
        <feMergeNode in="coloredBlur"/>
        <feMergeNode in="SourceGraphic"/>
      </feMerge>
    </filter>
  </defs>

  <!-- Background -->
  <rect width="1280" height="640" fill="url(#bgGradient)"/>
  <rect width="1280" height="640" fill="url(#geometricPattern)"/>

  <!-- Ambient light effects -->
  <ellipse cx="200" cy="100" rx="300" ry="150" fill="url(#primaryGradient)" opacity="0.1" filter="url(#glow)"/>
  <ellipse cx="1080" cy="540" rx="300" ry="150" fill="url(#accentGradient)" opacity="0.1" filter="url(#glow)"/>

  <!-- Logo Section (left side) -->
  <g transform="translate(240, 320)">
    <!-- Outer ring -->
    <g transform="rotate(-45)">
      <path d="M -100 0 A 100 100 0 0 1 0 -100"
            fill="none"
            stroke="url(#primaryGradient)"
            stroke-width="20"
            stroke-linecap="round"/>
      <path d="M 0 100 A 100 100 0 0 1 100 0"
            fill="none"
            stroke="url(#primaryGradient)"
            stroke-width="20"
            stroke-linecap="round"
            opacity="0.4"/>
    </g>

    <!-- Center shape -->
    <g filter="url(#glow)">
      <path d="M -58 -33 L -58 17 L 0 58 L 58 17 L 58 -33 L 0 -75 Z"
            fill="url(#accentGradient)"/>

      <!-- Inner details -->
      <g fill="white">
        <rect x="-33" y="-17" width="25" height="5" rx="2.5"/>
        <rect x="-33" y="-3" width="42" height="5" rx="2.5"/>
        <rect x="-33" y="10" width="33" height="5" rx="2.5"/>

        <path d="M 17 -13 L 30 -13 L 30 -20 L 42 -8 L 30 3 L 30 -3 L 17 -3 Z"
              opacity="0.9"/>
      </g>
    </g>
  </g>

  <!-- Text Content (right side) -->
  <g transform="translate(640, 250)">
    <!-- Title -->
    <text font-family="system-ui, -apple-system, 'Segoe UI', sans-serif" font-size="72" font-weight="800" fill="white">
      <tspan x="0" y="0">Cache Control</tspan>
    </text>

    <!-- Tagline -->
    <text font-family="system-ui, -apple-system, 'Segoe UI', sans-serif" font-size="28" font-weight="300" fill="#B8BEC8" opacity="0.9">
      <tspan x="0" y="50">Lightning-fast cache header management</tspan>
    </text>

    <!-- Feature badges -->
    <g transform="translate(0, 100)">
      <!-- Badge 1 -->
      <g transform="translate(0, 0)">
        <rect x="0" y="0" width="160" height="40" rx="20" fill="url(#primaryGradient)" opacity="0.2"/>
        <rect x="0" y="0" width="160" height="40" rx="20" fill="none" stroke="url(#primaryGradient)" stroke-width="2" opacity="0.5"/>
        <text x="80" y="26" font-family="system-ui, -apple-system, sans-serif" font-size="16" font-weight="600" text-anchor="middle" fill="white">Type-Safe</text>
      </g>

      <!-- Badge 2 -->
      <g transform="translate(180, 0)">
        <rect x="0" y="0" width="160" height="40" rx="20" fill="url(#primaryGradient)" opacity="0.2"/>
        <rect x="0" y="0" width="160" height="40" rx="20" fill="none" stroke="url(#primaryGradient)" stroke-width="2" opacity="0.5"/>
        <text x="80" y="26" font-family="system-ui, -apple-system, sans-serif" font-size="16" font-weight="600" text-anchor="middle" fill="white">Zero Deps</text>
      </g>

      <!-- Badge 3 -->
      <g transform="translate(360, 0)">
        <rect x="0" y="0" width="160" height="40" rx="20" fill="url(#primaryGradient)" opacity="0.2"/>
        <rect x="0" y="0" width="160" height="40" rx="20" fill="none" stroke="url(#primaryGradient)" stroke-width="2" opacity="0.5"/>
        <text x="80" y="26" font-family="system-ui, -apple-system, sans-serif" font-size="16" font-weight="600" text-anchor="middle" fill="white">CDN Ready</text>
      </g>
    </g>
  </g>

  <!-- Code snippet -->
  <g transform="translate(640, 440)">
    <rect x="0" y="0" width="560" height="120" rx="16" fill="rgba(255,255,255,0.05)" stroke="rgba(255,255,255,0.1)" stroke-width="1"/>

    <!-- Code content - properly formatted -->
    <g font-family="'SF Mono', Monaco, monospace" font-size="18" fill="white">
      <!-- Line 1 -->
      <text x="30" y="35">
        <tspan fill="#FF6B6B">const</tspan>
        <tspan fill="white"> cache </tspan>
        <tspan fill="white">=</tspan>
        <tspan fill="#FF6B6B"> new</tspan>
        <tspan fill="white"> </tspan>
        <tspan fill="#4ECDC4">CacheControl</tspan>
        <tspan fill="white">()</tspan>
      </text>
      
      <!-- Line 2 -->
      <text x="50" y="60">
        <tspan fill="white">.</tspan>
        <tspan fill="#4ECDC4">set</tspan>
        <tspan fill="white">(</tspan>
        <tspan fill="#98E4D6">'s-maxage'</tspan>
        <tspan fill="white">, </tspan>
        <tspan fill="#FFD93D">86400</tspan>
        <tspan fill="white">)</tspan>
      </text>
      
      <!-- Line 3 -->
      <text x="50" y="85">
        <tspan fill="white">.</tspan>
        <tspan fill="#4ECDC4">set</tspan>
        <tspan fill="white">(</tspan>
        <tspan fill="#98E4D6">'stale-while-revalidate'</tspan>
        <tspan fill="white">, </tspan>
        <tspan fill="#FFD93D">60</tspan>
        <tspan fill="white">);</tspan>
      </text>
    </g>
  </g>

  <!-- Package name -->
  <text x="640" y="50" font-family="'SF Mono', Monaco, monospace" font-size="20" text-anchor="middle" fill="url(#primaryGradient)" opacity="0.8">@usex/cache-control</text>

  <!-- Decorative elements -->
  <circle cx="100" cy="540" r="3" fill="url(#primaryGradient)"/>
  <circle cx="120" cy="540" r="3" fill="url(#primaryGradient)" opacity="0.7"/>
  <circle cx="140" cy="540" r="3" fill="url(#primaryGradient)" opacity="0.4"/>

  <circle cx="1180" cy="100" r="3" fill="url(#accentGradient)"/>
  <circle cx="1160" cy="100" r="3" fill="url(#accentGradient)" opacity="0.7"/>
  <circle cx="1140" cy="100" r="3" fill="url(#accentGradient)" opacity="0.4"/>
</svg>
